<?xml version="1.0" encoding="UTF-8" standalone="no"?>
<!-- Created with Inkscape (http://www.inkscape.org/) -->

<svg
   xmlns:dc="http://purl.org/dc/elements/1.1/"
   xmlns:cc="http://creativecommons.org/ns#"
   xmlns:rdf="http://www.w3.org/1999/02/22-rdf-syntax-ns#"
   xmlns:svg="http://www.w3.org/2000/svg"
   xmlns="http://www.w3.org/2000/svg"
   xmlns:sodipodi="http://sodipodi.sourceforge.net/DTD/sodipodi-0.dtd"
   xmlns:inkscape="http://www.inkscape.org/namespaces/inkscape"
   viewBox="0 0 1024.0001 1024.0001"
   id="svg2"
   version="1.1"
   inkscape:version="0.91 r13725"
   sodipodi:docname="ladybug-middlelegs.svg">
  <defs
     id="defs4" />
  <sodipodi:namedview
     id="base"
     pagecolor="#ffffff"
     bordercolor="#666666"
     borderopacity="1.0"
     inkscape:pageopacity="0.0"
     inkscape:pageshadow="2"
     inkscape:zoom="0.7023114"
     inkscape:cx="232.81205"
     inkscape:cy="505.81265"
     inkscape:document-units="px"
     inkscape:current-layer="layer1"
     showgrid="false"
     inkscape:window-width="1920"
     inkscape:window-height="1056"
     inkscape:window-x="0"
     inkscape:window-y="0"
     inkscape:window-maximized="1"
     fit-margin-top="0"
     fit-margin-left="0"
     fit-margin-right="0"
     fit-margin-bottom="0" />
  <metadata
     id="metadata7">
    <rdf:RDF>
      <cc:Work
         rdf:about="">
        <dc:format>image/svg+xml</dc:format>
        <dc:type
           rdf:resource="http://purl.org/dc/dcmitype/StillImage" />
        <dc:title />
      </cc:Work>
    </rdf:RDF>
  </metadata>
  <g
     inkscape:label="Layer 1"
     inkscape:groupmode="layer"
     id="layer1"
     transform="translate(621.85344,57.52805)">
    <path
       style="fill:#0c0606"
       d="m -511.91839,409.46037 c -0.3266,-0.85121 -0.367,-3.23871 -0.09,-5.30556 0.3149,-2.34733 -0.013,-4.46566 -0.8747,-5.64347 -1.4582,-1.99417 -1.8984,-6.52535 -0.6288,-6.47151 0.4125,0.0175 1.6236,0.6925 2.6912,1.5 2.3474,1.77548 8.8052,7.35103 17.4595,5.75641 5.1284,-0.94494 6.2157,3.12523 7.7741,0.93663 2.808,-3.94351 8.3739,1.62366 17.3002,2.43254 6.7746,0.6139 7.6996,0.47685 9.744,-1.44368 3.2852,-3.08631 16.2392,5.77474 27.4302,7.9954 12.112,2.40343 13.8766,2.04416 15.398,-3.1351 3.1498,-10.72284 22.6802,-12.83169 37.347,-31.05162 9.1686,-11.38971 21.3944,-22.52775 28.0089,-25.51691 13.0956,-5.06128 30.4395,12.74898 14.4311,9.1002 -6.2434,-1.44114 -7.8418,-0.88807 -9.6183,3.32804 -3.4184,8.11256 -40.2659,36.42347 -49.0199,47.42924 -7.157,8.99811 -13.399,13.05009 -18.4083,11.94985 -1.5218,-0.33424 -8.0978,0.30363 -14.6132,1.41751 -13.5271,2.31257 -21.4435,-7.00009 -26.0754,-8.675 -2.9403,-1.06323 -4.0287,-0.81388 -11.571,2.65098 -9.9885,4.58864 -13.644,-1.96821 -17.3235,-5.76364 l -2.8475,-2.72805 -5.7732,-3.21946 c -7.2362,-4.0354 -15.4609,0.4724 -17.1344,3.59934 -1.4829,2.77077 -2.7559,3.0736 -3.6061,0.85786 z m 775.97664,94.82732 c -1.699,-3.17463 -8.4111,-6.71289 -16.9143,-8.91626 l -6.3099,-1.63504 -2.8474,2.72805 c -3.8172,3.65705 -6.727,3.4607 -16.7155,-1.12794 -7.5423,-3.46486 -7.4282,-10.92893 -10.3685,-9.8657 -4.6319,1.67491 -10.7241,1.46098 -24.2512,-0.85159 -6.5154,-1.11388 -13.0914,-1.75175 -14.6132,-1.41751 -7.2299,1.58795 -16.1934,-6.93494 -30.5593,-29.05727 -12.9164,-19.89011 -14.9126,-88.67322 -16.3219,-92.04602 -1.8288,-4.37694 -3.3822,-4.9366 -9.6721,-3.48471 -4.3231,0.9979 -5.314,0.94238 -6.6277,-0.37133 -2.044,-2.04404 -0.6359,-4.29683 4.5173,-7.22708 9.5268,-5.41713 15.9547,-3.80891 28.6536,7.16892 16.7012,14.43767 25.9186,89.59305 32.1484,108.11393 2.3679,7.03995 3.3009,7.31982 16.0002,4.79986 11.1911,-2.22066 22.3208,-1.55512 25.606,1.53119 2.0444,1.92053 1.7668,9.2723 8.5415,8.6584 8.9263,-0.80888 13.8841,0.51553 16.6921,4.45904 1.5585,2.1886 3.2538,2.98307 8.3822,3.92801 8.6543,1.59462 14.9094,1.49179 17.2568,-0.28369 1.0676,-0.8075 2.2787,-1.4825 2.6912,-1.5 1.1347,-0.0481 0.898,3.82299 -0.3797,6.21042 -0.6213,1.1609 -1.1838,4.35547 -1.25,7.09903 -0.137,5.68053 -1.6069,6.92087 -3.6586,3.08729 z"
       id="path4276-3"
       inkscape:connector-curvature="0"
       sodipodi:nodetypes="ccscssssssssccssssssscssccssccssssscsssscscscsscscs" />
  </g>
</svg>
