<?xml version="1.0" encoding="UTF-8" standalone="no"?>
<!-- Created with Inkscape (http://www.inkscape.org/) -->

<svg
   xmlns:dc="http://purl.org/dc/elements/1.1/"
   xmlns:cc="http://creativecommons.org/ns#"
   xmlns:rdf="http://www.w3.org/1999/02/22-rdf-syntax-ns#"
   xmlns:svg="http://www.w3.org/2000/svg"
   xmlns="http://www.w3.org/2000/svg"
   xmlns:sodipodi="http://sodipodi.sourceforge.net/DTD/sodipodi-0.dtd"
   xmlns:inkscape="http://www.inkscape.org/namespaces/inkscape"
   viewBox="0 0 1024.0001 1024.0001"
   id="svg2"
   version="1.1"
   inkscape:version="0.91 r13725"
   sodipodi:docname="ladybug-outerlegs.svg">
  <defs
     id="defs4" />
  <sodipodi:namedview
     id="base"
     pagecolor="#ffffff"
     bordercolor="#666666"
     borderopacity="1.0"
     inkscape:pageopacity="0.0"
     inkscape:pageshadow="2"
     inkscape:zoom="0.7023114"
     inkscape:cx="542.50373"
     inkscape:cy="505.81265"
     inkscape:document-units="px"
     inkscape:current-layer="layer1"
     showgrid="false"
     inkscape:window-width="1920"
     inkscape:window-height="1056"
     inkscape:window-x="0"
     inkscape:window-y="0"
     inkscape:window-maximized="1"
     fit-margin-top="0"
     fit-margin-left="0"
     fit-margin-right="0"
     fit-margin-bottom="0" />
  <metadata
     id="metadata7">
    <rdf:RDF>
      <cc:Work
         rdf:about="">
        <dc:format>image/svg+xml</dc:format>
        <dc:type
           rdf:resource="http://purl.org/dc/dcmitype/StillImage" />
        <dc:title />
      </cc:Work>
    </rdf:RDF>
  </metadata>
  <g
     inkscape:label="Layer 1"
     inkscape:groupmode="layer"
     id="layer1"
     transform="translate(621.85344,57.52805)">
    <path
       style="fill:#0c0606"
       d="m -381.38423,823.41701 c -1.6747,-1.6747 -3.0448,-3.7242 -3.0448,-4.5544 0,-0.8303 -1.0125,-1.8166 -2.25,-2.1919 -2.8776,-0.8726 -4.9098,-6.5281 -4.2203,-7.6438 0.2905,-0.47 4.2203,7.6438 0.7793,1.1848 3.5591,-0.011 3.0608,-5.87401 8.9778,-13.77521 4.895,-6.5366 5.4925,-18.4159 4.9489,-21.33 -0.8904,-4.773 -7.0767,-18.2071 0.9377,-24.5054 5.2555,-4.1302 6.444,-5.5627 5.938,-7.157 -1.4346,-4.52 0.4339,-18.833 8.3157,-32.9173 2.576,-1.4706 4.9698,-3.5752 5.3195,-4.6769 0.3535,-1.1139 -0.3067,-4.522 -1.4869,-7.6765 -1.1675,-3.1203 -3.571,-17.9294 -4.3927,-23.42514 -0.8218,-5.49575 -1.6968,-10.32019 -1.9445,-10.72099 -1.1145,-1.80343 -3.5835,-28.04383 -4.14,-44.00155 -0.8971,-25.71982 1.6379,-45.83781 6.6655,-52.89837 2.5496,-3.58068 9.2241,-7.28275 12.3261,-6.83686 1.3195,0.18967 2.5417,1.4188 3.1568,3.17482 0.9189,2.62296 0.679,3.13795 -2.8353,6.08838 l -3.839,3.22306 1.6158,6.91161 c 2.28,9.75243 9.2459,64.57192 11.0734,87.14416 1.5986,19.74518 1.9878,33.85798 -1.1867,39.99678 -0.845,1.634 -2.3888,3.4272 -3.4307,3.9848 -1.0418,0.5576 -9.6995,5.2141 -11.9601,13.9339 -4.3448,16.7584 2.2718,25.8012 -1.3798,25.8012 -1.5333,0 -2.7185,0.8045 -3.3149,2.25 -8.4447,20.4675 0.7196,29.1216 -5.5677,29.1216 -3.9489,0 -4.5173,10.9299 -7.3955,15.1132 -5.4719,7.9531 -3.8872,17.64681 -3.5945,23.16261 0.1452,2.7362 -0.026,5.2653 -0.3811,5.6201 -0.3548,0.3549 -2.0153,-0.725 -3.69,-2.3997 z M 231.28637,736.446 c -0.3164,-0.3164 -0.2003,-1.8828 0.258,-3.4808 1.3615,-4.747 -1.6882,-13.1861 -8.2009,-22.6939 -2.6605,-3.884 7.0251,-1.1545 -7.1889,-4.25 -5.5064,-1.1992 -7.6948,8.4422 -12.6318,-3.5024 -3.604,-8.7194 -4.1726,-9.5278 -7.1273,-10.1321 -4.2633,-0.8719 -5.5703,-2.1651 -16.7479,-16.57126 -5.2496,-6.7659 -10.8067,-13.2002 -12.3492,-14.2985 -8.7117,-6.2033 -16.671,11.85248 -6.2555,-64.86072 1.6428,-12.1 -27.4002,-17.80273 -26.7647,-19.93721 1.2417,-4.1714 1.0091,-4.56113 -5.1697,-8.65857 -1.9414,-1.2874 -2.206,-2.06509 -1.6163,-4.75 0.6001,-2.73228 1.1462,-3.21056 3.6656,-3.21056 3.3985,0 9.5829,2.90499 12.0925,5.68019 5.7188,6.32398 39.1733,18.48198 38.3405,46.87614 -0.621,21.1708 6.5862,-3.64777 2.7737,18.33804 -2.2185,12.79363 -3.1064,16.37659 -5.144,20.75849 -1.7333,3.7275 -0.05,6.7739 5.3968,9.7654 13.2699,7.2885 24.6493,18.29966 24.6493,23.85166 0,2.1198 1.4571,3.8865 6.8174,8.2656 7.6892,6.2816 12.6916,4.0636 11.7562,9.0497 -0.5307,2.8285 -1.7798,0.7399 2.5284,6.4316 6,7.9258 10.5352,11.9045 13.5698,11.9045 1.2412,0 2.5607,0.3041 2.9324,0.6758 0.8771,0.877 -3.2941,5.3242 -4.9937,5.3242 -0.7164,0 -2.0711,1.2375 -3.0103,2.75 -2.1313,3.4322 -5.4731,7.25 -6.3461,7.25 -0.3624,0 -0.9179,-0.2589 -1.2343,-0.5753 z m -539.7485,-436.46368 c -7.9598,-9.98035 -14.5293,-11.32801 -18.4953,-23.76121 -6.4759,-20.30195 -6.5747,-26.70455 -0.5653,-36.63093 3.2625,-5.38893 -1.7913,-0.84042 -3.0555,-3.12255 -0.7572,-1.367 -4.2881,-4.50078 -7.8465,-6.96396 -7.3459,-5.08489 -24.4683,-11.78975 -24.2388,-13.60493 0.341,-2.69721 -0.3129,-3.53363 -5.6207,-7.18924 -6.9336,-4.77536 -9.4634,-8.26702 -9.4634,-13.06131 0,-6.17154 -14.5542,-15.84198 -20.1753,-15.84198 -3.405,0 -2.6157,-2.82845 1.3119,-4.70139 1.925,-0.91797 3.5,-1.96998 3.5,-2.3378 0,-1.07788 4.8133,-5.96081 5.8759,-5.96081 0.5342,0 0.9035,1.9125 0.8206,4.25 -0.2689,7.58021 12.3108,19.56289 16.649,18.42843 4.9124,-1.28461 6.8955,0.43281 11.7241,10.15319 4.1762,8.40717 11.3586,5.7262 14.202,6.25963 4.4858,0.84153 18.0013,4.67675 25.2369,16.66519 3.2669,5.41285 7.0649,11.71285 8.4399,14 2.413,4.01376 2.5,4.76738 2.5,21.65846 0,10.76566 -3.8413,20.88773 -1.3764,24.56936 l 3.482,5.20079 5.1263,7.18426 c 2.8195,3.95137 14.4692,8.53532 14.4692,9.27309 0,1.71192 -3.2211,4.65481 -5.0788,4.64017 -0.7817,-0.006 -13.76,-4.51515 -17.4218,-9.10646 z m 378.723104,7.56096 c -1.2224,-0.85619 -2.2225,-2.12606 -2.2225,-2.82194 0,-0.69588 2.3013,-4.60587 5.114,-8.68887 l -7.4943,-27.59709 -1.3641,-7.00443 c -0.8333,-4.2789 -1.364,-13.81392 -1.364,-24.50442 0,-16.89108 0.087,-17.6447 2.5,-21.65846 12.0796,-20.09314 3.3989,-25.4665 8.7263,-30.9321 4.3534,-4.46643 6.8256,-6.25 8.6629,-6.25 2.258,0 3.1283,-1.15252 7.1475,-9.46601 4.7484,-9.82166 1.6794,-19.10967 6.6857,-17.80048 4.751696,1.24259 8.173296,-12.41888 6.694396,-19.1526 -0.3866,-1.76017 0.5158,-2.78371 0.5158,-2.78371 0.2144,-1.1572 6.0317,4.79772 6.0317,5.96081 0,0.36782 1.575,1.41983 3.5,2.3378 4.2549,2.02903 4.6883,4.70139 0.7625,4.70139 -2.0832,0 -4.3539,1.68171 -9.5,7.03601 -6.253296,6.50617 -0.038,4.00416 -0.038,8.06104 0,5.2669 2.4362,16.3618 -4.959196,21.10739 -2.7486,1.76377 -5.0349,3.49744 -5.0808,3.85261 -0.046,0.35516 -0.1969,1.67611 -0.3358,2.93544 -0.3447,3.12624 5.239,10.17192 -4.1213,16.78357 -9.0264,6.37586 -11.6644,9.61085 -9.8818,12.11829 8.1302,11.43673 8.7598,20.07811 2.8158,38.64901 -4.7836,14.94525 6.2026,38.30887 -1.3758,47.67345 -8.0617,9.96183 -7.9382,9.88137 -11.419,7.4433 z"
       id="path4276-67"
       inkscape:connector-curvature="0"
       sodipodi:nodetypes="sscccsssscccccscscscssccsssssscsscssssscscssssssscssccscssssssscsssssssssssssssscsscsssscssssssscsssssssccscsss" />
  </g>
</svg>
