<?xml version="1.0" encoding="UTF-8" standalone="no"?>
<!-- Created with Inkscape (http://www.inkscape.org/) -->

<svg
   xmlns:dc="http://purl.org/dc/elements/1.1/"
   xmlns:cc="http://creativecommons.org/ns#"
   xmlns:rdf="http://www.w3.org/1999/02/22-rdf-syntax-ns#"
   xmlns:svg="http://www.w3.org/2000/svg"
   xmlns="http://www.w3.org/2000/svg"
   xmlns:sodipodi="http://sodipodi.sourceforge.net/DTD/sodipodi-0.dtd"
   xmlns:inkscape="http://www.inkscape.org/namespaces/inkscape"
   viewBox="0 0 1024.0001 1024.0001"
   id="svg2"
   version="1.1"
   inkscape:version="0.91 r13725"
   sodipodi:docname="ladybug.svg">
  <defs
     id="defs4" />
  <sodipodi:namedview
     id="base"
     pagecolor="#ffffff"
     bordercolor="#666666"
     borderopacity="1.0"
     inkscape:pageopacity="0.0"
     inkscape:pageshadow="2"
     inkscape:zoom="0.7023114"
     inkscape:cx="542.50373"
     inkscape:cy="505.81265"
     inkscape:document-units="px"
     inkscape:current-layer="layer1"
     showgrid="false"
     inkscape:window-width="1920"
     inkscape:window-height="1056"
     inkscape:window-x="0"
     inkscape:window-y="0"
     inkscape:window-maximized="1"
     fit-margin-top="0"
     fit-margin-left="0"
     fit-margin-right="0"
     fit-margin-bottom="0" />
  <metadata
     id="metadata7">
    <rdf:RDF>
      <cc:Work
         rdf:about="">
        <dc:format>image/svg+xml</dc:format>
        <dc:type
           rdf:resource="http://purl.org/dc/dcmitype/StillImage" />
        <dc:title />
      </cc:Work>
    </rdf:RDF>
  </metadata>
  <g
     inkscape:label="Layer 1"
     inkscape:groupmode="layer"
     id="layer1"
     transform="translate(621.85344,57.52805)">
    <g
       id="g4274"
       transform="translate(-1425.174,-330.82932)">
      <path
         style="fill:#f70202"
         d="m 1075.2915,863.70763 c -2.7428,-17.96589 -3.7698,-57.05188 -2.039,-77.60051 2.278,-27.04438 7.7962,-53.47693 16.6008,-79.51862 2.457,-7.26702 4.4673,-13.88718 4.4673,-14.71145 -3.1284,0.72637 1.672,-6.44449 3.7913,-8.8576 0.5409,-0.67 3.7877,-6.84318 7.2151,-13.71818 8.8853,-17.82299 13.3328,-24.98963 20.0733,-32.34573 3.2562,-3.5535 5.9203,-6.90943 5.9203,-7.45763 8.9314,-5.21443 -5.9203,7.45763 8.9314,-5.21443 0.7874,0.01 4.8374,-1.32775 9,-2.97229 4.1627,-1.64455 9.5936,-3.49905 12.0686,-4.12113 3.954,-0.99382 4.2743,-1.26799 2.6395,-2.25991 -9.7585,-5.92126 -13.2021,-10.94561 -12.3971,-18.0878 0.7619,-6.75942 20.5797,-36.51405 35.4976,-53.29645 11.5341,-12.97555 30.3605,-26.01929 43.6791,-30.2627 2.5265,-0.80495 6.4353,-3.74105 11,-8.2626 8.9494,-8.8648 19.2461,-16.12521 26.748,-18.86052 10.8009,-3.93824 5.6048,-5.90288 -8.7677,-3.31504 -16.4871,2.96855 -37.5068,0.4894 -50.1436,-5.91411 -6.2184,-3.15111 -11.2558,-8.7496 -11.2558,-12.50947 0,-5.71696 7.8021,-8.68776 10.9624,-4.17414 6.3492,9.06816 12.773,13.06706 27.4661,17.09806 10.0376,2.75378 17.5768,2.3478 27.2409,-1.4669 8.627,-3.4053 12.7324,-3.0215 17.3786,1.62465 l 3.1258,3.12583 30.9965,-0.0593 30.9965,-0.0593 3.0076,-3.07631 c 4.5626,-4.66677 8.382,-4.92562 18.4675,-1.25161 10.5931,3.85894 16.1954,3.97051 27.9742,0.55713 13.8078,-4.00132 19.0627,-7.41048 25.4215,-16.49224 1.887,-2.69514 6.254,-2.89712 8.9955,-0.41606 2.9228,2.64512 2.4691,6.82846 -1.1931,10.99944 -9.2071,10.48629 -35.9201,15.94758 -58.5563,11.97142 -9.7722,-1.71655 -13.2837,-1.61414 -13.2837,0.38739 0,0.52306 2.1434,1.66296 4.7632,2.53312 6.5912,2.18925 16.3448,8.98265 25.2368,17.57744 5.3777,5.19801 8.9161,7.74106 12.5044,8.98695 25.8961,8.9912 45.0855,27.28348 70.3549,67.0658 8.3804,13.19338 10.1335,17.85631 8.7645,23.31097 -0.9128,3.6371 -5.3074,8.43541 -9.8465,10.75108 -2.1841,1.11425 -3.7666,2.23043 -3.5167,2.48039 0.25,0.24997 3.7085,1.3562 7.6856,2.45831 3.9771,1.10211 9.3842,3.09493 12.0159,4.4285 20.4064,4.95605 -4.3786,-6.01145 14.0379,6.91094 0,0.65551 2.0565,3.19803 4.57,5.65004 6.3854,6.22919 12.1702,15.24585 20.549,32.02923 3.9619,7.93594 7.6241,14.97716 8.1382,15.64716 -8.1382,-15.64716 -8.1382,-15.64716 3.7428,8.83109 0,0.80969 1.8259,6.75485 4.0577,13.21145 8.3969,24.29317 14.493,52.56439 16.8705,78.23928 2.2738,24.55409 0.9382,64.85147 -2.8999,87.5 -4.5652,22.75524 -2.2342,9.31157 -4.5652,22.75524 -1.2821,7.65598 -8.2684,30.22151 -13.58,43.86352 -32.1539,82.58127 -96.3347,143.33717 -170.8831,161.76427 -47.6482,11.7779 -96.0897,6.6829 -140.5,-14.7774 -24.7732,-11.9711 -41.9209,-23.9241 -61.8391,-43.1056 -25.9716,-25.0111 -44.2546,-50.84073 -60.1656,-85.00003 -10.4521,-22.43961 -13.8033,-31.92702 -21.721,-61.49233 z m 174.136,-305.55754 c 3.3516,-1.55845 6.7373,-4.08911 8.4169,-6.29123 2.5716,-3.37146 2.8426,-4.54832 3.1949,-13.87081 0.4472,-11.83812 -0.5157,-14.58373 -5.7448,-16.38034 -5.0869,-1.74773 -21.8289,-1.62173 -27.0013,0.20322 -6.7571,2.38404 -20.7066,12.21264 -24.9472,17.57737 -8.7949,11.12637 -7.0296,18.36245 5.0948,20.88374 2.4089,0.50093 11.3548,0.81503 19.8798,0.69802 14.3624,-0.19714 15.9115,-0.40411 21.1069,-2.81997 z m 177.3931,0.61583 c 2.2286,-1.09464 4.5977,-3.22424 5.3498,-4.80904 3.2302,-6.80687 -6.0549,-18.82332 -21.7241,-28.11458 -8.1546,-4.8354 -8.5961,-4.96916 -17.7148,-5.36799 -11.1952,-0.48964 -17.6007,0.33775 -20.3745,2.63177 -4.1233,3.41001 -3.9372,22.07895 0.2826,28.34066 5.1749,7.67902 13.1888,9.9202 34.181,9.55908 13.5127,-0.23246 16.6218,-0.58065 20,-2.2399 z M 1290.6632,500.191 c 3.9651,-1.80659 6.0119,-8.1352 3.4574,-10.68973 -2.1433,-2.14328 -11.3995,-1.43668 -16.7593,1.27938 -6.6859,3.38797 -7.8326,7.45176 -2.6884,9.52731 3.1078,1.25392 13.1427,1.18052 15.9903,-0.11696 z m 67.243,-1.04679 c 2.535,-2.535 0.8444,-5.59135 -4.6263,-8.36356 -6.3432,-3.21431 -15.3405,-3.50411 -16.9242,-0.54512 -1.678,3.13541 -1.2181,5.03662 1.9957,8.25041 2.9223,2.9223 3.2976,3.01734 10.4828,2.65451 5.1388,-0.2595 7.9549,-0.87917 9.072,-1.99624 z"
         id="path4278"
         inkscape:connector-curvature="0"
         sodipodi:nodetypes="cssccssccsscsssssssssssscccssscsssssssssscsccsscccsccsssssccsccssssssccsssssccssscsscsss" />
      <path
         style="fill:#0c0606"
         d="m 1312.9907,1104.6381 c -0.4111,-0.4111 -0.7118,-76.3676 -0.6682,-168.79217 0.044,-92.42456 0.061,-174.13829 0.039,-181.58607 l -0.041,-13.54141 -7.25,-1.69822 c -23.7207,-5.55627 -39.1755,-22.84557 -42.2088,-47.21896 -0.7898,-6.3463 1.4958,-19.47878 4.5031,-25.87327 7.179,-15.26535 21.7286,-26.6662 38.3604,-30.0588 l 6.0953,-1.24331 0,-9.41231 0,-9.41231 -74.1646,-0.5 -74.1646,-0.5 -4.232,-3 c -5.69,-4.0336 -8.1718,-8.73564 -7.6684,-14.52869 0.3071,-3.53448 1.9977,-7.04708 7.7008,-16 15.4422,-24.24148 29.115,-40.89899 42.0957,-51.28482 7.9153,-6.33305 22.0533,-14.37907 29.3522,-16.70456 2.5265,-0.80495 6.4353,-3.74105 11,-8.2626 8.9494,-8.8648 19.2461,-16.12521 26.748,-18.86052 10.8009,-3.93824 5.6048,-5.90288 -8.7677,-3.31504 -16.4871,2.96855 -37.5068,0.4894 -50.1436,-5.91411 -6.2184,-3.15111 -11.2558,-8.7496 -11.2558,-12.50947 0,-5.71696 7.8021,-8.68776 10.9624,-4.17414 6.3492,9.06816 12.773,13.06706 27.4661,17.09806 10.0376,2.75378 17.5768,2.3478 27.2409,-1.4669 8.627,-3.4053 12.7324,-3.0215 17.3786,1.62465 l 3.1258,3.12583 30.9965,-0.0593 30.9965,-0.0593 3.0076,-3.07631 c 4.5626,-4.66677 8.382,-4.92562 18.4675,-1.25161 10.5931,3.85894 16.1954,3.97051 27.9742,0.55713 13.8078,-4.00132 19.0627,-7.41048 25.4215,-16.49224 1.887,-2.69514 6.254,-2.89712 8.9955,-0.41606 2.9228,2.64512 2.4691,6.82846 -1.1931,10.99944 -9.2071,10.48629 -35.9201,15.94758 -58.5563,11.97142 -9.7722,-1.71655 -13.2837,-1.61414 -13.2837,0.38739 0,0.52306 2.1434,1.66296 4.7632,2.53312 6.5912,2.18925 16.3448,8.98265 25.2368,17.57744 5.3777,5.19801 8.9161,7.74106 12.5044,8.98695 25.8961,8.9912 45.0855,27.28348 70.3549,67.0658 10.5803,16.65679 11.5516,21.74137 5.5218,28.90728 -5.8016,6.89489 -1.012,6.48799 -82.8811,7.04116 l -74,0.5 -0.2878,9.2669 c -0.2145,6.9071 0.04,9.35496 1,9.61273 0.7083,0.1902 4.4378,1.11982 8.2878,2.06582 13.3494,3.28015 24.5688,11.29383 31.766,22.68953 4.7375,7.50106 6.4511,12.35216 7.7719,22.00184 3.6357,26.56265 -14.1829,51.116 -41.7879,57.58214 l -7.25,1.69822 -0.049,14.54141 c -0.027,7.99778 -0.1392,89.91641 -0.25,182.04141 l -0.2015,167.50003 -2.0412,0.2922 c -1.1226,0.1607 -2.3775,-0.044 -2.7887,-0.4554 z m -63.5632,-546.48801 c 3.3516,-1.55845 6.7373,-4.08911 8.4169,-6.29123 2.5716,-3.37146 2.8426,-4.54832 3.1949,-13.87081 0.4472,-11.83812 -0.5157,-14.58373 -5.7448,-16.38034 -5.0869,-1.74773 -21.8289,-1.62173 -27.0013,0.20322 -6.7571,2.38404 -20.7066,12.21264 -24.9472,17.57737 -8.7949,11.12637 -7.0296,18.36245 5.0948,20.88374 2.4089,0.50093 11.3548,0.81503 19.8798,0.69802 14.3624,-0.19714 15.9115,-0.40411 21.1069,-2.81997 z m 177.3931,0.61583 c 2.2286,-1.09464 4.5977,-3.22424 5.3498,-4.80904 3.2302,-6.80687 -6.0549,-18.82332 -21.7241,-28.11458 -8.1546,-4.8354 -8.5961,-4.96916 -17.7148,-5.36799 -11.1952,-0.48964 -17.6007,0.33775 -20.3745,2.63177 -4.1233,3.41001 -3.9372,22.07895 0.2826,28.34066 5.1749,7.67902 13.1888,9.9202 34.181,9.55908 13.5127,-0.23246 16.6218,-0.58065 20,-2.2399 z M 1290.6632,500.191 c 3.9651,-1.80659 6.0119,-8.1352 3.4574,-10.68973 -2.1433,-2.14328 -11.3995,-1.43668 -16.7593,1.27938 -6.6859,3.38797 -7.8326,7.45176 -2.6884,9.52731 3.1078,1.25392 13.1427,1.18052 15.9903,-0.11696 z m 67.243,-1.04679 c 2.535,-2.535 0.8444,-5.59135 -4.6263,-8.36356 -6.3432,-3.21431 -15.3405,-3.50411 -16.9242,-0.54512 -1.678,3.13541 -1.2181,5.03662 1.9957,8.25041 2.9223,2.9223 3.2976,3.01734 10.4828,2.65451 5.1388,-0.2595 7.9549,-0.87917 9.072,-1.99624 z m -152.8517,544.72549 c -15.0258,-5.3614 -35.76,-25.493 -45.4223,-44.10206 -13.099,-25.22795 -10.4908,-42.4314 6.322,-41.69967 16.6723,0.72561 42.0951,23.08429 54.8453,48.23493 8.2017,16.1784 8.8032,32.1852 1.4042,37.3677 -2.8594,2.0028 -11.8033,2.1066 -17.1492,0.1991 z m 203.4104,-0.1224 c -3.3327,-2.4156 -5.1443,-7.4335 -5.1443,-14.2488 0,-27.2107 37.8742,-70.89357 61.9216,-71.41833 6.0206,-0.13138 10.8585,2.45073 12.6571,6.7554 8.0338,19.22754 -18.5401,62.19613 -47.6202,76.99933 -7.021,3.574 -18.1729,4.5517 -21.8142,1.9124 z M 1207.1335,901.89006 c -8.4055,-2.42005 -14.082,-5.83866 -20.7906,-12.52092 -21.6142,-21.5294 -22.8699,-58.37071 -2.6768,-78.53701 23.82,-23.78838 63.3048,-9.76793 74.0057,26.27826 5.7318,19.30772 0.9221,41.04798 -11.923,53.89304 -10.2452,10.24527 -25.7049,14.60373 -38.6153,10.88663 z m 195.6871,0.009 c -15.9967,-5.07228 -27.2294,-18.29047 -31.1008,-36.59779 -5.104,-24.13619 7.4133,-51.37316 28.3693,-61.73019 7.4368,-3.67546 7.9056,-3.76981 18.7318,-3.76981 10.6498,0 11.3784,0.13922 17.8078,3.40261 15.1286,7.67888 24.6919,24.82029 24.6919,44.25827 0,10.35372 -1.448,16.6963 -6.0983,26.71245 -9.8471,21.20927 -33.4936,33.72008 -52.4017,27.72452 z M 1110.2867,779.2615 c -3.5176,-1.36435 -7.6568,-8.15512 -9.0479,-14.84383 -0.7136,-3.43097 -0.9634,-10.09124 -0.6421,-17.1164 1.4255,-31.16545 21.1784,-66.42095 38.4805,-68.68109 5.4556,-0.71264 8.8818,1.0415 12.174,6.23272 8.4146,13.26849 5.726,40.79931 -6.4405,65.94837 -6.1161,12.64242 -13.0096,21.69 -19.6579,25.8003 -5.0775,3.13915 -10.9306,4.18642 -14.8661,2.65993 z m 398.2148,-0.96423 c -23.5168,-10.67231 -42.601,-70.49357 -29.5862,-92.74043 11.3934,-19.47538 35.944,1.65777 48.0424,41.35486 2.4064,7.89613 2.7178,10.56588 2.786,23.88957 0.08,15.61723 -0.5499,18.87749 -4.7738,24.70653 -2.0071,2.76997 -6.3047,4.81065 -10.0486,4.77151 -1.1554,-0.0121 -4.0443,-0.904 -6.4198,-1.98204 z"
         id="path4276"
         inkscape:connector-curvature="0"
         sodipodi:nodetypes="csccsscscccccscsssssssssssscccssscsssssssssscscsssscsscsccsccssssssccsssssccssscsscssssssssssssssssssssscsssssscccsssssscssssccs" />
    </g>
    <path
       style="fill:#ffffff"
       d="m -176.8765,227.10743 c 3.3516,-1.55845 6.7373,-4.08911 8.4169,-6.29123 2.5716,-3.37145 2.8426,-4.54831 3.1949,-13.8708 0.4472,-11.83812 -0.5157,-14.58373 -5.7448,-16.38034 -5.0869,-1.74773 -21.8289,-1.62173 -27.0013,0.20322 -6.7571,2.38404 -20.7066,12.21264 -24.9472,17.57737 -8.7949,11.12636 -7.0296,18.36244 5.0948,20.88373 2.4089,0.50093 11.3548,0.81503 19.8798,0.69802 14.3624,-0.19714 15.9115,-0.40411 21.1069,-2.81997 z m 177.39309551,0.61583 c 2.22859999,-1.09464 4.59769999,-3.22424 5.34979999,-4.80904 3.2302,-6.80686 -6.05489999,-18.82331 -21.7240995,-28.11457 -8.1546,-4.8354 -8.5961,-4.96916 -17.7148,-5.36799 -11.1952,-0.48964 -17.6007,0.33775 -20.3745,2.63177 -4.1233,3.41001 -3.9372,22.07895 0.2826,28.34065 5.1749,7.67902 13.1888,9.9202 34.181,9.55908 13.5126995,-0.23246 16.6217995,-0.58065 19.99999951,-2.2399 z"
       id="path4276-6"
       inkscape:connector-curvature="0"
       sodipodi:nodetypes="sccssssssccsssssc" />
    <path
       style="fill:#ffffff"
       d="m -134.26702,169.05268 c 3.9651,-1.80659 6.0119,-8.1352 3.4574,-10.68973 -2.1433,-2.14328 -11.3995,-1.43668 -16.7593,1.27938 -6.6859,3.38797 -7.8326,7.45176 -2.6884,9.52731 3.1078,1.25392 13.1427,1.18052 15.9903,-0.11696 z m 67.242997,-1.04679 c 2.535,-2.535 0.8444,-5.59135 -4.6263,-8.36356 -6.3432,-3.21431 -15.3405,-3.50411 -16.9242,-0.54512 -1.678,3.13541 -1.2181,5.03662 1.9957,8.25041 2.9223,2.9223 3.2976,3.01734 10.4828,2.65451 5.1388,-0.2595 7.9549,-0.87917 9.072,-1.99624 z"
       id="path4276-7"
       inkscape:connector-curvature="0"
       sodipodi:nodetypes="cssscsscsss" />
    <path
       style="fill:#ffffff"
       d="m -178.00424,228.31999 c 3.3516,-1.55845 6.7373,-4.08911 8.4169,-6.29123 2.5716,-3.37145 2.8426,-4.54831 3.1949,-13.8708 0.4472,-11.83812 -0.5157,-14.58373 -5.7448,-16.38034 -5.0869,-1.74773 -21.8289,-1.62173 -27.0013,0.20322 -6.7571,2.38404 -20.7066,12.21264 -24.9472,17.57737 -8.7949,11.12636 -7.0296,18.36244 5.0948,20.88373 2.4089,0.50093 11.3548,0.81503 19.8798,0.69802 14.3624,-0.19714 15.9115,-0.40411 21.1069,-2.81997 z m 177.39309522,0.61583 c 2.22859998,-1.09464 4.59769998,-3.22424 5.34979998,-4.80904 3.2302,-6.80686 -6.0549,-18.82331 -21.7241002,-28.11457 -8.1546,-4.8354 -8.5961,-4.96916 -17.7148,-5.36799 -11.1952,-0.48964 -17.6007,0.33775 -20.3745,2.63177 -4.1233,3.41001 -3.9372,22.07895 0.2826,28.34065 5.1749,7.67902 13.1888,9.9202 34.181,9.55908 13.5127002,-0.23246 16.6218002,-0.58065 20.00000022,-2.2399 z"
       id="path4276-6-3"
       inkscape:connector-curvature="0"
       sodipodi:nodetypes="sccssssssccsssssc" />
    <path
       style="fill:#ffffff"
       d="m -135.39476,170.26524 c 3.9651,-1.80659 6.0119,-8.1352 3.4574,-10.68973 -2.1433,-2.14328 -11.3995,-1.43668 -16.7593,1.27938 -6.6859,3.38797 -7.8326,7.45176 -2.6884,9.52731 3.1078,1.25392 13.1427,1.18052 15.9903,-0.11696 z m 67.242995,-1.04679 c 2.535,-2.535 0.8444,-5.59135 -4.6263,-8.36356 -6.3432,-3.21431 -15.3405,-3.50411 -16.9242,-0.54512 -1.678,3.13541 -1.2181,5.03662 1.9957,8.25041 2.9223,2.9223 3.2976,3.01734 10.4828,2.65451 5.1388,-0.2595 7.9549,-0.87917 9.072,-1.99624 z"
       id="path4276-7-6"
       inkscape:connector-curvature="0"
       sodipodi:nodetypes="cssscsscsss" />
  </g>
</svg>
